<svg id="Layer_1" data-name="Layer 1" xmlns="http://www.w3.org/2000/svg" xmlns:xlink="http://www.w3.org/1999/xlink" viewBox="0 0 945.56 585.74"><defs><style>.cls-1{stroke:#010101;stroke-miterlimit:10;stroke-width:2.26px;fill:url(#linear-gradient);}.cls-2{fill:#53a4da;}</style><linearGradient id="linear-gradient" x1="0.85" y1="464.34" x2="3.98" y2="464.34" gradientUnits="userSpaceOnUse"><stop offset="0" stop-color="#241f21"/><stop offset="0.46" stop-color="#282425"/><stop offset="0.99" stop-color="#848587"/></linearGradient></defs><title>1</title><line class="cls-1" x1="3.98" y1="462.55" x2="0.85" y2="466.14"/><path class="cls-2" d="M9.94,36.28l297.23,483a176.48,176.48,0,0,0,207.17,74.57l22.36-7.61L247.48,105.91A182.49,182.49,0,0,0,19.69,32.13Z" transform="translate(70.93 -17.54)"/><path class="cls-2" d="M311.42,36.28,483.27,326.42a187.83,187.83,0,0,0,234,77.6h0L539,112.18a186.09,186.09,0,0,0-227.56-75.9Z" transform="translate(70.93 -17.54)"/><path class="cls-2" d="M747.08,266.71,661.78,118a35.08,35.08,0,0,1,3-39.32C691.45,45.09,758-12.75,874.63,41.25Z" transform="translate(70.93 -17.54)"/></svg>